<svg width="216" height="33" viewBox="0 0 216 33" fill="none" xmlns="http://www.w3.org/2000/svg">
<path d="M37.9851 7.92358H41L44.8773 19.8107L48.8408 7.83765H51.254L55.1317 19.8107L59.0094 7.92358H61.938L56.3385 24.1179H53.8391L49.9614 12.5746L45.998 24.1179H43.5848L37.9851 7.92358ZM64.2549 23.9426H76.314V21.4435H67.0977V17.1363H75.1934V14.6371H67.0977V10.4158H76.1421V7.91673H64.2549V23.9358V23.9426ZM79.4145 24.0286H85.4441C90.4388 24.0286 93.9726 20.4982 93.9726 16.019V15.9331C93.9726 11.368 90.5282 7.92358 85.4441 7.92358H79.4145V24.0286ZM85.4441 10.5052C88.8027 10.5052 91.044 12.7431 91.044 15.9331V16.019C91.044 19.2057 88.806 21.447 85.4441 21.447H82.2574V10.5086H85.4441V10.5052ZM96.9874 24.0286H103.017C108.012 24.0286 111.545 20.4982 111.545 16.019V15.9331C111.545 11.368 108.101 7.92358 103.017 7.92358H96.9874V24.0286ZM103.017 10.5052C106.376 10.5052 108.617 12.7431 108.617 15.9331V16.019C108.617 19.2057 106.379 21.447 103.017 21.447H99.8302V10.5086H103.017V10.5052ZM114.646 24.0286H117.489V7.92358H114.646V24.0286ZM121.449 24.0286H124.206V12.5746L133.078 24.0286H135.406V7.92358H132.649V19.0338L124.034 7.92358H121.449V24.0286ZM146.774 24.2864C149.616 24.2864 151.94 23.1658 153.491 21.7873V15.0703H146.688V17.5694H150.823V20.5841C149.875 21.2716 148.496 21.7907 146.946 21.7907C143.673 21.7907 141.518 19.2916 141.518 16.019V15.9331C141.518 12.8324 143.756 10.2474 146.684 10.2474C148.665 10.2474 149.957 10.9349 151.163 11.9696L152.971 9.81768C151.249 8.43923 149.613 7.66579 146.77 7.66579C141.947 7.66579 138.503 11.454 138.503 16.019C138.503 20.6701 141.861 24.2864 146.77 24.2864H146.774ZM160.813 24.1145H162.363L166.842 11.1102L171.235 24.1145H172.786L178.472 7.92015H176.577L171.926 21.2717L167.533 7.83422H166.069L161.676 21.2717L157.111 7.92015H155.131L160.816 24.1145H160.813ZM181.225 24.0286H183.033V7.92358H181.225V24.0286ZM187.255 7.92358V24.0286H189.063V17.8272H193.628L198.279 24.0286H200.516L195.608 17.4835C198.193 17.0537 200.001 15.5034 200.001 12.8324V12.7465C200.001 11.454 199.571 10.3333 198.794 9.55986C197.76 8.52516 196.21 7.92358 194.229 7.92358H187.251H187.255ZM189.149 16.105V9.55986H194.143C196.729 9.55986 198.279 10.7664 198.279 12.7465V12.8324C198.279 14.8984 196.557 16.105 194.143 16.105H189.149ZM203.617 23.9426H215.333V22.3063H205.429V16.7066H214.215V15.0703H205.429V9.55986H215.246V7.92358H203.617V23.9426ZM32.2134 16.105C32.2134 24.9774 24.9774 32.21 16.1084 32.21C7.23952 32.21 0 24.9774 0 16.105C0 7.23264 7.23606 0 16.105 0C24.9739 0 32.21 7.23606 32.21 16.105H32.2134ZM31.1787 16.105C31.1787 7.75172 24.4617 1.03127 16.105 1.03127C7.74825 1.03127 1.03471 7.75172 1.03471 16.105C1.03471 24.4583 7.75172 31.1787 16.1084 31.1787C24.4652 31.1787 31.1822 24.4617 31.1822 16.105H31.1787ZM21.9626 7.92358C20.6701 7.92358 19.6354 8.95831 19.6354 10.2508C19.6354 11.0277 20.0651 11.7152 20.6701 12.1449C18.776 14.3828 17.3975 17.0537 16.5347 19.9825V15.4175H15.5859V19.9825C14.7231 17.0537 13.3481 14.3828 11.4505 12.1449C12.0521 11.7152 12.4852 11.0243 12.4852 10.2508C12.4852 8.95831 11.4505 7.92358 10.158 7.92358C8.8655 7.92358 7.83076 8.95831 7.83076 10.2508C7.83076 11.5434 8.8655 12.5781 10.158 12.5781H10.5018C13.6884 16.2803 15.5825 21.4504 15.5825 26.8749H16.5312C16.5312 21.361 18.3394 16.2803 21.612 12.5781H21.9557C23.2483 12.5781 24.283 11.5434 24.283 10.2508C24.283 8.95831 23.2483 7.92358 21.9557 7.92358H21.9626ZM13.7812 7.66579C13.7812 8.95143 14.8228 9.99301 16.1084 9.99301C17.3941 9.99301 18.4357 8.95143 18.4357 7.66579C18.4357 6.38011 17.3941 5.33853 16.1084 5.33853C14.8228 5.33853 13.7812 6.38011 13.7812 7.66579ZM14.2109 12.5746C14.2109 13.6196 15.06 14.4687 16.105 14.4687C17.15 14.4687 17.9991 13.6196 17.9991 12.5746C17.9991 11.5296 17.15 10.6805 16.105 10.6805C15.06 10.6805 14.2109 11.5296 14.2109 12.5746Z" fill="url(#paint0_linear_2401_313)"/>
<defs>
<linearGradient id="paint0_linear_2401_313" x1="9.00985" y1="-14.1731" x2="206.832" y2="50.1023" gradientUnits="userSpaceOnUse">
<stop stop-color="#E64C38"/>
<stop offset="0.02" stop-color="#E85F38"/>
<stop offset="0.05" stop-color="#EB7139"/>
<stop offset="0.07" stop-color="#ED7D39"/>
<stop offset="0.1" stop-color="#EE813A"/>
<stop offset="0.2" stop-color="#E4DD55"/>
<stop offset="0.31" stop-color="#A3D55F"/>
<stop offset="0.43" stop-color="#19B5BC"/>
<stop offset="0.55" stop-color="#4B1A78"/>
<stop offset="0.65" stop-color="#613915"/>
<stop offset="0.74"/>
<stop offset="0.83" stop-color="#73D7EE"/>
<stop offset="0.93" stop-color="#FFAFC7"/>
<stop offset="0.99" stop-color="#F2F2F2"/>
</linearGradient>
</defs>
</svg>
